Dinish-ExpandedBold.ufo
<glyph name="ampersand" format="2">
  <advance width="681"/>
  <unicode hex="0026"/>
  <outline>
    <contour>
      <point x="465" y="236" type="line"/>
      <point x="352" y="367" type="line"/>
      <point x="452.962" y="431.615"/>
      <point x="490" y="481"/>
      <point x="490" y="551" type="curve" smooth="yes"/>
      <point x="490" y="652.312"/>
      <point x="412.827" y="721"/>
      <point x="299" y="721" type="curve" smooth="yes"/>
      <point x="185.643" y="721"/>
      <point x="110" y="652.962"/>
      <point x="110" y="551" type="curve" smooth="yes"/>
      <point x="110" y="499.091"/>
      <point x="128.237" y="459.12"/>
      <point x="183" y="391" type="curve"/>
      <point x="88.3502" y="331.011"/>
      <point x="47" y="268.681"/>
      <point x="47" y="186" type="curve" smooth="yes"/>
      <point x="47" y="64.0493"/>
      <point x="131.293" y="-14"/>
      <point x="263" y="-14" type="curve" smooth="yes"/>
      <point x="338.226" y="-14"/>
      <point x="397.189" y="10.746"/>
      <point x="456" y="67" type="curve"/>
      <point x="459" y="63" type="line" smooth="yes"/>
      <point x="495.726" y="14.0326"/>
      <point x="528.619" y="0"/>
      <point x="579" y="0" type="curve" smooth="yes"/>
      <point x="634" y="0" type="line"/>
      <point x="634" y="110" type="line"/>
      <point x="611" y="110" type="line" smooth="yes"/>
      <point x="582.917" y="110"/>
      <point x="565.496" y="117.405"/>
      <point x="545" y="142" type="curve" smooth="yes"/>
      <point x="535" y="154" type="line"/>
      <point x="636" y="267" type="line"/>
      <point x="557" y="339" type="line"/>
    </contour>
    <contour>
      <point x="285" y="446" type="curve"/>
      <point x="242.501" y="496.226"/>
      <point x="228" y="524.211"/>
      <point x="228" y="556" type="curve" smooth="yes"/>
      <point x="228" y="597.759"/>
      <point x="255.124" y="623"/>
      <point x="300" y="623" type="curve" smooth="yes"/>
      <point x="344.831" y="623"/>
      <point x="374" y="595.802"/>
      <point x="374" y="554" type="curve" smooth="yes"/>
      <point x="374" y="515.266"/>
      <point x="349.762" y="485.854"/>
    </contour>
    <contour>
      <point x="387" y="150" type="line"/>
      <point x="345.232" y="110.843"/>
      <point x="311.242" y="95"/>
      <point x="269" y="95" type="curve" smooth="yes"/>
      <point x="206.104" y="95"/>
      <point x="168" y="131.218"/>
      <point x="168" y="191" type="curve" smooth="yes"/>
      <point x="168" y="235.463"/>
      <point x="190.979" y="267.092"/>
      <point x="253" y="308" type="curve"/>
    </contour>
  </outline>
</glyph>
<glyph name="quotesingle" format="2">
  <advance width="197"/>
  <unicode hex="0027"/>
  <outline>
    <contour>
      <point x="39" y="401" type="line"/>
      <point x="159" y="401" type="line"/>
      <point x="159" y="707" type="line"/>
      <point x="39" y="707" type="line"/>
    </contour>
  </outline>
</glyph>
<glyph name="period" format="2">
  <advance width="220"/>
  <unicode hex="002E"/>
  <outline>
    <contour>
      <point x="39" y="0" type="line"/>
      <point x="181" y="0" type="line"/>
      <point x="181" y="145" type="line"/>
      <point x="39" y="145" type="line"/>
    </contour>
  </outline>
</glyph>
<glyph name="six" format="2">
  <advance width="582"/>
  <unicode hex="0036"/>
  <outline>
    <contour>
      <point x="285" y="707" type="line"/>
      <point x="102" y="392" type="line" smooth="yes"/>
      <point x="68.1476" y="333.729"/>
      <point x="51" y="277.243"/>
      <point x="51" y="224" type="curve" smooth="yes"/>
      <point x="51" y="204" type="line" smooth="yes"/>
      <point x="51" y="69.0743"/>
      <point x="142.247" y="-11"/>
      <point x="296" y="-11" type="curve" smooth="yes"/>
      <point x="447.863" y="-11"/>
      <point x="542" y="72.8052"/>
      <point x="542" y="208" type="curve" smooth="yes"/>
      <point x="542" y="229" type="line" smooth="yes"/>
      <point x="542" y="351.869"/>
      <point x="461.694" y="431"/>
      <point x="337" y="431" type="curve" smooth="yes"/>
      <point x="306.333" y="431"/>
      <point x="281.333" y="426.333"/>
      <point x="262" y="417" type="curve"/>
      <point x="430" y="707" type="line"/>
    </contour>
    <contour>
      <point x="185" y="203" type="curve" smooth="yes"/>
      <point x="185" y="222" type="line" smooth="yes"/>
      <point x="185" y="282.961"/>
      <point x="226.241" y="319"/>
      <point x="296" y="319" type="curve" smooth="yes"/>
      <point x="366.476" y="319"/>
      <point x="408" y="282.667"/>
      <point x="408" y="221" type="curve" smooth="yes"/>
      <point x="408" y="203" type="line" smooth="yes"/>
      <point x="408" y="140.335"/>
      <point x="365.49" y="102"/>
      <point x="296" y="102" type="curve" smooth="yes"/>
      <point x="226.898" y="102"/>
      <point x="185" y="140.123"/>
    </contour>
  </outline>
</glyph>
<glyph name="greater" format="2">
  <advance width="541"/>
  <unicode hex="003E"/>
  <outline>
    <contour>
      <point x="49" y="54" type="line"/>
      <point x="492" y="228" type="line"/>
      <point x="492" y="334" type="line"/>
      <point x="49" y="507" type="line"/>
      <point x="49" y="389" type="line"/>
      <point x="334" y="281" type="line"/>
      <point x="49" y="173" type="line"/>
    </contour>
  </outline>
</glyph>
<glyph name="E" format="2">
  <advance width="601"/>
  <unicode hex="0045"/>
  <anchor x="318" y="776" name="top"/>
  <anchor x="318" y="-86" name="bottom"/>
  <anchor x="565" y="0" name="b.cedilla"/>
  <outline>
    <contour>
      <point x="60" y="0" type="line"/>
      <point x="565" y="0" type="line"/>
      <point x="565" y="117" type="line"/>
      <point x="195" y="117" type="line"/>
      <point x="195" y="298" type="line"/>
      <point x="513" y="298" type="line"/>
      <point x="513" y="415" type="line"/>
      <point x="195" y="415" type="line"/>
      <point x="195" y="590" type="line"/>
      <point x="565" y="590" type="line"/>
      <point x="565" y="707" type="line"/>
      <point x="60" y="707" type="line"/>
    </contour>
  </outline>
  <guideline angle="90" name="h1" x="318" y="0"/>
</glyph>
<glyph name="M" format="2">
  <advance width="828"/>
  <unicode hex="004D"/>
  <anchor x="416" y="776" name="top"/>
  <anchor x="236" y="-86" name="bottom"/>
  <outline>
    <contour>
      <point x="60" y="0" type="line"/>
      <point x="195" y="0" type="line"/>
      <point x="195" y="451" type="line"/>
      <point x="371" y="136" type="line"/>
      <point x="461" y="136" type="line"/>
      <point x="634" y="447" type="line"/>
      <point x="634" y="0" type="line"/>
      <point x="768" y="0" type="line"/>
      <point x="768" y="707" type="line"/>
      <point x="634" y="707" type="line"/>
      <point x="416" y="302" type="line"/>
      <point x="195" y="707" type="line"/>
      <point x="60" y="707" type="line"/>
    </contour>
  </outline>
  <guideline angle="90" name="h1" x="416" y="0"/>
</glyph>
<glyph name="P" format="2">
  <advance width="643"/>
  <unicode hex="0050"/>
  <anchor x="311" y="776" name="top"/>
  <anchor x="236" y="-86" name="bottom"/>
  <outline>
    <contour>
      <point x="60" y="0" type="line"/>
      <point x="195" y="0" type="line"/>
      <point x="195" y="268" type="line"/>
      <point x="360" y="268" type="line" smooth="yes"/>
      <point x="523.515" y="268"/>
      <point x="618" y="347.47"/>
      <point x="618" y="485" type="curve" smooth="yes"/>
      <point x="618" y="626.033"/>
      <point x="526.091" y="707"/>
      <point x="366" y="707" type="curve" smooth="yes"/>
      <point x="60" y="707" type="line"/>
    </contour>
    <contour>
      <point x="195" y="386" type="line"/>
      <point x="195" y="590" type="line"/>
      <point x="371" y="590" type="line" smooth="yes"/>
      <point x="444.667" y="590"/>
      <point x="484" y="553.799"/>
      <point x="484" y="486" type="curve" smooth="yes"/>
      <point x="484" y="419.333"/>
      <point x="446.333" y="386"/>
      <point x="371" y="386" type="curve" smooth="yes"/>
    </contour>
  </outline>
  <guideline angle="90" name="h1" x="311" y="0"/>
</glyph>
<glyph name="T" format="2">
  <advance width="570"/>
  <unicode hex="0054"/>
  <anchor x="285" y="-86" name="bottom"/>
  <anchor x="285" y="776" name="top"/>
  <anchor x="248" y="0" name="b.cedilla"/>
  <outline>
    <contour>
      <point x="218" y="0" type="line"/>
      <point x="352" y="0" type="line"/>
      <point x="352" y="590" type="line"/>
      <point x="564" y="590" type="line"/>
      <point x="564" y="707" type="line"/>
      <point x="6" y="707" type="line"/>
      <point x="6" y="590" type="line"/>
      <point x="218" y="590" type="line"/>
    </contour>
  </outline>
  <guideline angle="90" name="h1" x="285" y="0"/>
</glyph>
<glyph name="Z" format="2">
  <advance width="574"/>
  <unicode hex="005A"/>
  <anchor x="280" y="776" name="top"/>
  <anchor x="280" y="-86" name="bottom"/>
  <outline>
    <contour>
      <point x="31" y="0" type="line"/>
      <point x="547" y="0" type="line"/>
      <point x="547" y="118" type="line"/>
      <point x="185" y="118" type="line"/>
      <point x="537" y="590" type="line"/>
      <point x="537" y="707" type="line"/>
      <point x="38" y="707" type="line"/>
      <point x="38" y="590" type="line"/>
      <point x="383" y="590" type="line"/>
      <point x="31" y="118" type="line"/>
    </contour>
  </outline>
  <guideline angle="90" name="h1" x="280" y="0"/>
</glyph>
<glyph name="grave" format="2">
  <advance width="512"/>
  <unicode hex="0060"/>
  <outline>
    <contour>
      <point x="48" y="738" type="line"/>
      <point x="228" y="602" type="line"/>
      <point x="348" y="602" type="line"/>
      <point x="213" y="738" type="line"/>
    </contour>
  </outline>
</glyph>
<glyph name="l" format="2">
  <advance width="328"/>
  <unicode hex="006C"/>
  <anchor x="118" y="776" name="top"/>
  <anchor x="191" y="-86" name="bottom"/>
  <anchor x="311" y="397" name="dot"/>
  <outline>
    <contour>
      <point x="303" y="0" type="line"/>
      <point x="303" y="110" type="line"/>
      <point x="255" y="110" type="line" smooth="yes"/>
      <point x="200.552" y="110"/>
      <point x="182" y="127.79"/>
      <point x="182" y="180" type="curve" smooth="yes"/>
      <point x="182" y="707" type="line"/>
      <point x="55" y="707" type="line"/>
      <point x="55" y="172" type="line" smooth="yes"/>
      <point x="55" y="56.827"/>
      <point x="113.479" y="0"/>
      <point x="232" y="0" type="curve" smooth="yes"/>
    </contour>
  </outline>
  <guideline angle="90" name="h1" x="118" y="0"/>
</glyph>
<glyph name="n" format="2">
  <advance width="585"/>
  <unicode hex="006E"/>
  <anchor x="298" y="602" name="top"/>
  <anchor x="298" y="-86" name="bottom"/>
  <anchor x="0" y="760" name="dot"/>
  <outline>
    <contour>
      <point x="55" y="0" type="line"/>
      <point x="182" y="0" type="line"/>
      <point x="182" y="301" type="line" smooth="yes"/>
      <point x="182" y="381.793"/>
      <point x="223.024" y="426"/>
      <point x="298" y="426" type="curve" smooth="yes"/>
      <point x="368" y="426"/>
      <point x="403" y="386"/>
      <point x="403" y="306" type="curve" smooth="yes"/>
      <point x="403" y="0" type="line"/>
      <point x="530" y="0" type="line"/>
      <point x="530" y="332" type="line" smooth="yes"/>
      <point x="530" y="462.11"/>
      <point x="457.939" y="539"/>
      <point x="336" y="539" type="curve" smooth="yes"/>
      <point x="273.302" y="539"/>
      <point x="217.647" y="516.313"/>
      <point x="179" y="475" type="curve"/>
      <point x="179" y="532" type="line"/>
      <point x="55" y="532" type="line"/>
    </contour>
  </outline>
  <guideline angle="90" name="h1" x="298" y="0"/>
</glyph>
<glyph name="r" format="2">
  <advance width="403"/>
  <unicode hex="0072"/>
  <anchor x="207" y="602" name="top"/>
  <anchor x="207" y="-86" name="bottom"/>
  <outline>
    <contour>
      <point x="55" y="0" type="line"/>
      <point x="182" y="0" type="line"/>
      <point x="182" y="295" type="line" smooth="yes"/>
      <point x="182" y="383"/>
      <point x="229" y="432"/>
      <point x="309" y="432" type="curve" smooth="yes"/>
      <point x="336.333" y="432"/>
      <point x="361.667" y="427.667"/>
      <point x="385" y="419" type="curve"/>
      <point x="385" y="540" type="line"/>
      <point x="371.667" y="542.667"/>
      <point x="355" y="544"/>
      <point x="335" y="544" type="curve" smooth="yes"/>
      <point x="271" y="544"/>
      <point x="215" y="520"/>
      <point x="179" y="472" type="curve"/>
      <point x="179" y="532" type="line"/>
      <point x="55" y="532" type="line"/>
    </contour>
  </outline>
  <guideline angle="90" name="h1" x="207" y="0"/>
</glyph>
<glyph name="u" format="2">
  <advance width="585"/>
  <unicode hex="0075"/>
  <anchor x="293" y="602" name="top"/>
  <anchor x="294" y="-86" name="bottom"/>
  <anchor x="372" y="0" name="b.cedilla"/>
  <outline>
    <contour>
      <point x="55" y="532" type="line"/>
      <point x="55" y="223" type="line" smooth="yes"/>
      <point x="55" y="70.3132"/>
      <point x="136.364" y="-9"/>
      <point x="293" y="-9" type="curve" smooth="yes"/>
      <point x="450.667" y="-9"/>
      <point x="530" y="68.6596"/>
      <point x="530" y="223" type="curve" smooth="yes"/>
      <point x="530" y="532" type="line"/>
      <point x="403" y="532" type="line"/>
      <point x="403" y="229" type="line" smooth="yes"/>
      <point x="403" y="142.97"/>
      <point x="368.707" y="104"/>
      <point x="293" y="104" type="curve" smooth="yes"/>
      <point x="217.555" y="104"/>
      <point x="182" y="144.039"/>
      <point x="182" y="229" type="curve" smooth="yes"/>
      <point x="182" y="532" type="line"/>
    </contour>
  </outline>
  <guideline angle="90" name="h1" x="293" y="0"/>
</glyph>
<glyph name="brokenbar" format="2">
  <advance width="303"/>
  <unicode hex="00A6"/>
  <outline>
    <contour>
      <point x="93" y="397" type="line"/>
      <point x="211" y="397" type="line"/>
      <point x="211" y="758" type="line"/>
      <point x="93" y="758" type="line"/>
    </contour>
    <contour>
      <point x="93" y="-86" type="line"/>
      <point x="211" y="-86" type="line"/>
      <point x="211" y="276" type="line"/>
      <point x="93" y="276" type="line"/>
    </contour>
  </outline>
</glyph>
<glyph name="periodcentered" format="2">
  <advance width="220"/>
  <unicode hex="00B7"/>
  <anchor x="110" y="280" name="_dot"/>
  <outline>
    <contour>
      <point x="39" y="213" type="line"/>
      <point x="181" y="213" type="line"/>
      <point x="181" y="358" type="line"/>
      <point x="39" y="358" type="line"/>
    </contour>
  </outline>
</glyph>
<glyph name="cedilla" format="2">
  <advance width="512"/>
  <unicode hex="00B8"/>
  <outline>
    <contour>
      <point x="146" y="-160" type="line"/>
      <point x="268" y="-160" type="line"/>
      <point x="339" y="13" type="line"/>
      <point x="236" y="13" type="line"/>
    </contour>
  </outline>
</glyph>
<glyph name="threequarters" format="2">
  <advance width="953"/>
  <unicode hex="00BE"/>
  <outline>
    <contour>
      <point x="197" y="0" type="line"/>
      <point x="301" y="0" type="line"/>
      <point x="755" y="712" type="line"/>
      <point x="651" y="712" type="line"/>
    </contour>
    <contour>
      <point x="20.3749" y="403.853" type="line"/>
      <point x="20.3749" y="395.853" type="line" smooth="yes"/>
      <point x="20.3749" y="315.908"/>
      <point x="73.5812" y="272.853"/>
      <point x="172.375" y="272.853" type="curve" smooth="yes"/>
      <point x="263.698" y="272.853"/>
      <point x="324.375" y="324.748"/>
      <point x="324.375" y="402.853" type="curve" smooth="yes"/>
      <point x="324.375" y="410.853" type="line" smooth="yes"/>
      <point x="324.375" y="461.863"/>
      <point x="299.684" y="498.526"/>
      <point x="258.375" y="508.853" type="curve"/>
      <point x="294.997" y="524.548"/>
      <point x="316.375" y="555.14"/>
      <point x="316.375" y="591.853" type="curve" smooth="yes"/>
      <point x="316.375" y="598.853" type="line" smooth="yes"/>
      <point x="316.375" y="671.745"/>
      <point x="260.946" y="716.853"/>
      <point x="171.375" y="716.853" type="curve" smooth="yes"/>
      <point x="74.9003" y="716.853"/>
      <point x="22.3749" y="672.788"/>
      <point x="22.3749" y="591.853" type="curve" smooth="yes"/>
      <point x="22.3749" y="584.853" type="line"/>
      <point x="116.375" y="584.853" type="line"/>
      <point x="116.375" y="592.853" type="line" smooth="yes"/>
      <point x="116.375" y="618.186"/>
      <point x="133.042" y="630.853"/>
      <point x="166.375" y="630.853" type="curve" smooth="yes"/>
      <point x="199.042" y="630.853"/>
      <point x="215.375" y="617.52"/>
      <point x="215.375" y="590.853" type="curve" smooth="yes"/>
      <point x="215.375" y="582.853" type="line"/>
      <point x="214.708" y="556.186"/>
      <point x="196.042" y="542.853"/>
      <point x="159.375" y="542.853" type="curve" smooth="yes"/>
      <point x="136.375" y="542.853" type="line"/>
      <point x="136.375" y="455.853" type="line"/>
      <point x="160.375" y="455.853" type="line" smooth="yes"/>
      <point x="201.708" y="455.853"/>
      <point x="222.375" y="440.186"/>
      <point x="222.375" y="408.853" type="curve" smooth="yes"/>
      <point x="222.375" y="401.853" type="line" smooth="yes"/>
      <point x="222.375" y="374.186"/>
      <point x="203.832" y="358.853"/>
      <point x="170.375" y="358.853" type="curve" smooth="yes"/>
      <point x="133.708" y="358.853"/>
      <point x="115.375" y="371.853"/>
      <point x="115.375" y="397.853" type="curve" smooth="yes"/>
      <point x="115.375" y="403.853" type="line"/>
    </contour>
    <contour>
      <point x="584" y="58" type="line"/>
      <point x="790" y="58" type="line"/>
      <point x="790" y="0" type="line"/>
      <point x="895" y="0" type="line"/>
      <point x="895" y="58" type="line"/>
      <point x="923" y="58" type="line"/>
      <point x="923" y="150" type="line"/>
      <point x="895" y="150" type="line"/>
      <point x="895" y="240" type="line"/>
      <point x="790" y="240" type="line"/>
      <point x="790" y="150" type="line"/>
      <point x="689" y="150" type="line"/>
      <point x="807" y="429" type="line"/>
      <point x="701" y="429" type="line"/>
      <point x="584" y="150" type="line"/>
    </contour>
  </outline>
</glyph>
<glyph name="questiondown" format="2">
  <advance width="512"/>
  <unicode hex="00BF"/>
  <outline>
    <contour>
      <point x="198" y="401" type="line"/>
      <point x="332" y="401" type="line"/>
      <point x="332" y="532" type="line"/>
      <point x="198" y="532" type="line"/>
    </contour>
    <contour>
      <point x="360" y="27" type="line"/>
      <point x="358.638" y="-28.8298"/>
      <point x="328" y="-55"/>
      <point x="264" y="-55" type="curve" smooth="yes"/>
      <point x="199.769" y="-55"/>
      <point x="166" y="-29.1565"/>
      <point x="166" y="20" type="curve" smooth="yes"/>
      <point x="166" y="51.6625"/>
      <point x="178.664" y="74.0115"/>
      <point x="217" y="110" type="curve" smooth="yes"/>
      <point x="266" y="156" type="line" smooth="yes"/>
      <point x="315.584" y="202.548"/>
      <point x="329" y="233.213"/>
      <point x="329" y="300" type="curve" smooth="yes"/>
      <point x="329" y="333" type="line"/>
      <point x="202" y="333" type="line"/>
      <point x="202" y="315" type="line" smooth="yes"/>
      <point x="202" y="268.111"/>
      <point x="192.227" y="246.44"/>
      <point x="156" y="213" type="curve" smooth="yes"/>
      <point x="104" y="165" type="line" smooth="yes"/>
      <point x="56.7756" y="121.408"/>
      <point x="35" y="73.1232"/>
      <point x="35" y="12" type="curve" smooth="yes"/>
      <point x="35" y="-100.803"/>
      <point x="121.306" y="-170"/>
      <point x="262" y="-170" type="curve" smooth="yes"/>
      <point x="407.333" y="-170"/>
      <point x="481.333" y="-104.333"/>
      <point x="484" y="27" type="curve"/>
    </contour>
  </outline>
</glyph>
<glyph name="Eth" format="2">
  <advance width="710"/>
  <unicode hex="00D0"/>
  <outline>
    <component base="D" xOffset="33"/>
    <contour>
      <point x="28" y="301" type="line"/>
      <point x="388" y="301" type="line"/>
      <point x="388" y="419" type="line"/>
      <point x="28" y="419" type="line"/>
    </contour>
  </outline>
</glyph>
<glyph name="Oslash" format="2">
  <advance width="689"/>
  <unicode hex="00D8"/>
  <anchor x="350" y="776" name="top"/>
  <outline>
    <component base="O"/>
    <contour>
      <point x="56" y="-20" type="line"/>
      <point x="140" y="-20" type="line"/>
      <point x="638" y="732" type="line"/>
      <point x="556" y="732" type="line"/>
    </contour>
  </outline>
  <guideline angle="90" name="h1" x="350" y="0"/>
</glyph>
<glyph name="ae" format="2">
  <advance width="921"/>
  <unicode hex="00E6"/>
  <anchor x="456" y="602" name="top"/>
  <outline>
    <contour>
      <point x="54" y="373" type="line"/>
      <point x="175" y="373" type="line"/>
      <point x="175" y="376" type="line" smooth="yes"/>
      <point x="175" y="417.45"/>
      <point x="210.144" y="441"/>
      <point x="272" y="441" type="curve" smooth="yes"/>
      <point x="347.333" y="441"/>
      <point x="385" y="409.333"/>
      <point x="385" y="346" type="curve" smooth="yes"/>
      <point x="385" y="316" type="line"/>
      <point x="243" y="316" type="line" smooth="yes"/>
      <point x="108.441" y="316"/>
      <point x="38" y="262.74"/>
      <point x="38" y="161" type="curve" smooth="yes"/>
      <point x="38" y="54.3146"/>
      <point x="117.702" y="-9"/>
      <point x="252" y="-9" type="curve" smooth="yes"/>
      <point x="338.003" y="-9"/>
      <point x="403.667" y="14.3333"/>
      <point x="449" y="63" type="curve"/>
      <point x="495" y="15"/>
      <point x="559" y="-9"/>
      <point x="641" y="-9" type="curve" smooth="yes"/>
      <point x="772.684" y="-9"/>
      <point x="871" y="58.2873"/>
      <point x="871" y="161" type="curve" smooth="yes"/>
      <point x="871" y="167" type="line"/>
      <point x="748" y="167" type="line"/>
      <point x="748" y="164" type="line" smooth="yes"/>
      <point x="748" y="123.448"/>
      <point x="701" y="101"/>
      <point x="641" y="101" type="curve" smooth="yes"/>
      <point x="555.456" y="101"/>
      <point x="511.011" y="142.561"/>
      <point x="511.011" y="225.704" type="curve" smooth="yes"/>
      <point x="511.011" y="229" type="line"/>
      <point x="876" y="229" type="line"/>
      <point x="876" y="291" type="line" smooth="yes"/>
      <point x="876" y="449.528"/>
      <point x="785.738" y="542"/>
      <point x="631" y="542" type="curve" smooth="yes"/>
      <point x="558.997" y="542"/>
      <point x="500.667" y="520.667"/>
      <point x="456" y="480" type="curve"/>
      <point x="414.667" y="519.333"/>
      <point x="354.333" y="539"/>
      <point x="275" y="539" type="curve" smooth="yes"/>
      <point x="138.971" y="539"/>
      <point x="54" y="476.329"/>
      <point x="54" y="376" type="curve" smooth="yes"/>
    </contour>
    <contour>
      <point x="511" y="316" type="line"/>
      <point x="515" y="394"/>
      <point x="555" y="433"/>
      <point x="631" y="433" type="curve" smooth="yes"/>
      <point x="705.932" y="433"/>
      <point x="750" y="393.006"/>
      <point x="750" y="325" type="curve" smooth="yes"/>
      <point x="750" y="316" type="line"/>
    </contour>
    <contour>
      <point x="385" y="229" type="line"/>
      <point x="385" y="198" type="line" smooth="yes"/>
      <point x="385" y="129.53"/>
      <point x="343.43" y="95"/>
      <point x="261" y="95" type="curve" smooth="yes"/>
      <point x="194.333" y="95"/>
      <point x="161" y="118.333"/>
      <point x="161" y="165" type="curve" smooth="yes"/>
      <point x="161" y="209.61"/>
      <point x="192.812" y="229"/>
      <point x="266" y="229" type="curve" smooth="yes"/>
    </contour>
  </outline>
  <guideline angle="90" name="h1" x="456" y="0"/>
</glyph>
<glyph name="eth" format="2">
  <advance width="575"/>
  <unicode hex="00F0"/>
  <outline>
    <contour>
      <point x="135" y="517" type="line"/>
      <point x="260" y="552" type="line"/>
      <point x="334" y="461" type="line"/>
      <point x="311.333" y="471"/>
      <point x="283" y="476"/>
      <point x="249" y="476" type="curve" smooth="yes"/>
      <point x="126.954" y="476"/>
      <point x="47" y="386.942"/>
      <point x="47" y="251" type="curve" smooth="yes"/>
      <point x="47" y="223" type="line" smooth="yes"/>
      <point x="47" y="76.5408"/>
      <point x="137.16" y="-11"/>
      <point x="288" y="-11" type="curve" smooth="yes"/>
      <point x="437.729" y="-11"/>
      <point x="529" y="80.2707"/>
      <point x="529" y="230" type="curve" smooth="yes"/>
      <point x="529" y="256" type="line" smooth="yes"/>
      <point x="529" y="350.865"/>
      <point x="497.693" y="435.139"/>
      <point x="414" y="536" type="curve" smooth="yes"/>
      <point x="375" y="583" type="line"/>
      <point x="459" y="606" type="line"/>
      <point x="434" y="686" type="line"/>
      <point x="316" y="654" type="line"/>
      <point x="269" y="712" type="line"/>
      <point x="131" y="712" type="line"/>
      <point x="203" y="624" type="line"/>
      <point x="110" y="598" type="line"/>
    </contour>
    <contour>
      <point x="289" y="99" type="curve" smooth="yes"/>
      <point x="209.583" y="99"/>
      <point x="165" y="145.022"/>
      <point x="165" y="227" type="curve" smooth="yes"/>
      <point x="165" y="253" type="line" smooth="yes"/>
      <point x="165" y="330.032"/>
      <point x="210.058" y="374"/>
      <point x="289" y="374" type="curve" smooth="yes"/>
      <point x="365" y="374"/>
      <point x="411" y="328"/>
      <point x="411" y="252" type="curve" smooth="yes"/>
      <point x="411" y="227" type="line" smooth="yes"/>
      <point x="411" y="145.732"/>
      <point x="366.458" y="99"/>
    </contour>
  </outline>
</glyph>
<glyph name="Lcaron" format="2">
  <advance width="583"/>
  <unicode hex="013D"/>
  <outline>
    <component base="L"/>
    <contour>
      <point x="310" y="481" type="line"/>
      <point x="410" y="562" type="line"/>
      <point x="410" y="707" type="line"/>
      <point x="310" y="707" type="line"/>
    </contour>
  </outline>
</glyph>
<glyph name="Lslash" format="2">
  <advance width="583"/>
  <unicode hex="0141"/>
  <outline>
    <component base="L"/>
    <contour>
      <point x="20" y="279" type="line"/>
      <point x="391" y="446" type="line"/>
      <point x="391" y="559" type="line"/>
      <point x="21" y="392" type="line"/>
    </contour>
  </outline>
</glyph>
<glyph name="Eng" format="2">
  <advance width="715"/>
  <unicode hex="014A"/>
  <outline>
    <contour>
      <point x="60" y="0" type="line"/>
      <point x="195" y="0" type="line"/>
      <point x="195" y="468" type="line"/>
      <point x="521" y="0" type="line"/>
      <point x="521.028" y="-10.4954" type="line"/>
      <point x="521.147" y="-55.6678"/>
      <point x="498.491" y="-63"/>
      <point x="455" y="-63" type="curve" smooth="yes"/>
      <point x="407" y="-63" type="line"/>
      <point x="407" y="-173" type="line"/>
      <point x="478" y="-173" type="line" smooth="yes"/>
      <point x="596.581" y="-173"/>
      <point x="655" y="-116.231"/>
      <point x="655" y="-1" type="curve" smooth="yes"/>
      <point x="655" y="707" type="line"/>
      <point x="521" y="707" type="line"/>
      <point x="521" y="238" type="line"/>
      <point x="195" y="707" type="line"/>
      <point x="60" y="707" type="line"/>
    </contour>
  </outline>
</glyph>
<glyph name="OE" format="2">
  <advance width="1038"/>
  <unicode hex="0152"/>
  <outline>
    <contour>
      <point x="514" y="0" type="line"/>
      <point x="1002" y="0" type="line"/>
      <point x="1002" y="117" type="line"/>
      <point x="643" y="117" type="line"/>
      <point x="643" y="298" type="line"/>
      <point x="950" y="298" type="line"/>
      <point x="950" y="415" type="line"/>
      <point x="643" y="415" type="line"/>
      <point x="643" y="590" type="line"/>
      <point x="1002" y="590" type="line"/>
      <point x="1002" y="707" type="line"/>
      <point x="514" y="707" type="line"/>
      <point x="514" y="674" type="line"/>
      <point x="466" y="704.667"/>
      <point x="409.667" y="720"/>
      <point x="345" y="720" type="curve" smooth="yes"/>
      <point x="160.412" y="720"/>
      <point x="56" y="608"/>
      <point x="56" y="410" type="curve" smooth="yes"/>
      <point x="56" y="299" type="line" smooth="yes"/>
      <point x="56" y="100.949"/>
      <point x="159.282" y="-11"/>
      <point x="342" y="-11" type="curve" smooth="yes"/>
      <point x="408" y="-11"/>
      <point x="465.333" y="4.66667"/>
      <point x="514" y="36" type="curve"/>
    </contour>
    <contour>
      <point x="351" y="110" type="curve" smooth="yes"/>
      <point x="242.829" y="110"/>
      <point x="191" y="171.871"/>
      <point x="191" y="301" type="curve" smooth="yes"/>
      <point x="191" y="402" type="line" smooth="yes"/>
      <point x="191" y="537.5"/>
      <point x="242.6" y="602"/>
      <point x="351" y="602" type="curve" smooth="yes"/>
      <point x="456.333" y="602"/>
      <point x="509" y="535.333"/>
      <point x="509" y="402" type="curve" smooth="yes"/>
      <point x="509" y="301" type="line" smooth="yes"/>
      <point x="509" y="173.667"/>
      <point x="456.333" y="110"/>
    </contour>
  </outline>
</glyph>
<glyph name="tcaron" format="2">
  <advance width="411"/>
  <unicode hex="0165"/>
  <outline>
    <component base="t"/>
    <contour>
      <point x="295" y="574" type="line"/>
      <point x="395" y="655" type="line"/>
      <point x="395" y="800" type="line"/>
      <point x="295" y="800" type="line"/>
    </contour>
  </outline>
</glyph>
<glyph name="longs" format="2">
  <advance width="322"/>
  <unicode hex="017F"/>
  <anchor x="162" y="776" name="top"/>
  <outline>
    <contour>
      <point x="55" y="0" type="line"/>
      <point x="180" y="0" type="line"/>
      <point x="180" y="443" type="line"/>
      <point x="295" y="443" type="line"/>
      <point x="295" y="532" type="line"/>
      <point x="180" y="532" type="line"/>
      <point x="180" y="559" type="line" smooth="yes"/>
      <point x="180" y="603.301"/>
      <point x="199.412" y="621"/>
      <point x="248" y="621" type="curve" smooth="yes"/>
      <point x="295" y="621" type="line"/>
      <point x="295" y="707" type="line"/>
      <point x="212" y="707" type="line" smooth="yes"/>
      <point x="108.009" y="707"/>
      <point x="55" y="655.342"/>
      <point x="55" y="554" type="curve" smooth="yes"/>
    </contour>
  </outline>
  <guideline angle="90" name="h1" x="162" y="0"/>
</glyph>
<glyph name="Ocenteredtilde" format="2">
  <advance width="689"/>
  <unicode hex="019F"/>
  <outline>
    <component base="O"/>
    <contour>
      <point x="167" y="295" type="line"/>
      <point x="534" y="295" type="line"/>
      <point x="534" y="413" type="line"/>
      <point x="167" y="413" type="line"/>
    </contour>
  </outline>
</glyph>
<glyph name="obarred" format="2">
  <advance width="576"/>
  <unicode hex="0275"/>
  <outline>
    <component base="o"/>
    <contour>
      <point x="137" y="210" type="line"/>
      <point x="454" y="210" type="line"/>
      <point x="454" y="328" type="line"/>
      <point x="137" y="328" type="line"/>
    </contour>
  </outline>
</glyph>
<glyph name="breve" format="2">
  <advance width="512"/>
  <unicode hex="02D8"/>
  <outline>
    <contour>
      <point x="86" y="767" type="line"/>
      <point x="86" y="746" type="line" smooth="yes"/>
      <point x="86" y="640.965"/>
      <point x="145.093" y="585"/>
      <point x="256" y="585" type="curve" smooth="yes"/>
      <point x="366.907" y="585"/>
      <point x="426" y="640.965"/>
      <point x="426" y="746" type="curve" smooth="yes"/>
      <point x="426" y="767" type="line"/>
      <point x="338" y="767" type="line"/>
      <point x="338" y="746" type="line" smooth="yes"/>
      <point x="338" y="686.152"/>
      <point x="311.14" y="657"/>
      <point x="256" y="657" type="curve" smooth="yes"/>
      <point x="200.86" y="657"/>
      <point x="174" y="686.152"/>
      <point x="174" y="746" type="curve" smooth="yes"/>
      <point x="174" y="767" type="line"/>
    </contour>
  </outline>
</glyph>
<glyph name="hungarumlaut" format="2">
  <advance width="512"/>
  <unicode hex="02DD"/>
  <outline>
    <contour>
      <point x="273" y="602" type="line"/>
      <point x="383" y="602" type="line"/>
      <point x="524" y="738" type="line"/>
      <point x="384" y="738" type="line"/>
    </contour>
    <contour>
      <point x="83" y="602" type="line"/>
      <point x="193" y="602" type="line"/>
      <point x="334" y="738" type="line"/>
      <point x="194" y="738" type="line"/>
    </contour>
  </outline>
</glyph>
<glyph name="Becyr" format="2">
  <advance width="663"/>
  <unicode hex="0411"/>
  <outline>
    <contour>
      <point x="174.82" y="0" type="line"/>
      <point x="366" y="0" type="line" smooth="yes"/>
      <point x="526.091" y="0"/>
      <point x="618" y="80.9675"/>
      <point x="618" y="222" type="curve" smooth="yes"/>
      <point x="618" y="359.53"/>
      <point x="523.515" y="439"/>
      <point x="360" y="439" type="curve" smooth="yes"/>
      <point x="174.82" y="439" type="line"/>
      <point x="174.82" y="321" type="line"/>
      <point x="371" y="321" type="line" smooth="yes"/>
      <point x="446.333" y="321"/>
      <point x="484" y="287.667"/>
      <point x="484" y="221" type="curve" smooth="yes"/>
      <point x="484" y="153.134"/>
      <point x="444.594" y="116.867"/>
      <point x="371" y="117" type="curve" smooth="yes"/>
      <point x="174.82" y="117.356" type="line"/>
    </contour>
    <contour>
      <point x="174.557" y="590" type="line"/>
      <point x="565" y="590" type="line"/>
      <point x="565" y="707" type="line"/>
      <point x="174.557" y="707" type="line"/>
    </contour>
    <contour>
      <point x="60" y="0" type="line"/>
      <point x="195" y="0" type="line"/>
      <point x="195" y="707.01" type="line"/>
      <point x="60" y="707" type="line"/>
    </contour>
  </outline>
</glyph>
<glyph name="Elcyr" format="2">
  <advance width="695"/>
  <unicode hex="041B"/>
  <outline>
    <contour>
      <point x="500" y="0" type="line"/>
      <point x="635" y="0" type="line"/>
      <point x="635" y="707.01" type="line"/>
      <point x="500" y="707" type="line"/>
    </contour>
    <contour>
      <point x="20.2267" y="0" type="line"/>
      <point x="188.045" y="0"/>
      <point x="258.706" y="87.76"/>
      <point x="271.099" y="224.085" type="curve" smooth="yes"/>
      <point x="315" y="707.01" type="line"/>
      <point x="180" y="707" type="line"/>
      <point x="130.514" y="264.922" type="line" smooth="yes"/>
      <point x="121.989" y="188.769"/>
      <point x="99.678" y="116.946"/>
      <point x="20" y="116.946" type="curve"/>
    </contour>
    <contour>
      <point x="184.557" y="590" type="line"/>
      <point x="545" y="590" type="line"/>
      <point x="545" y="707" type="line"/>
      <point x="184.557" y="707" type="line"/>
    </contour>
  </outline>
  <guideline angle="84.8056" x="285" y="377"/>
  <guideline angle="263.613" x="180" y="707"/>
</glyph>
<glyph name="Efcyr" format="2">
  <advance width="785"/>
  <unicode hex="0424"/>
  <anchor x="607.5" y="776" name="top"/>
  <outline>
    <contour>
      <point x="349.717" y="170" type="line"/>
      <point x="241.546" y="170"/>
      <point x="191.717" y="211.871"/>
      <point x="191.717" y="341" type="curve" smooth="yes"/>
      <point x="191.717" y="362" type="line" smooth="yes"/>
      <point x="191.717" y="497.5"/>
      <point x="241.317" y="542"/>
      <point x="349.717" y="542" type="curve"/>
      <point x="349.717" y="660" type="line"/>
      <point x="159.383" y="660"/>
      <point x="56.7166" y="570.011"/>
      <point x="56.7166" y="370" type="curve" smooth="yes"/>
      <point x="56.7166" y="339" type="line" smooth="yes"/>
      <point x="56.7166" y="138.735"/>
      <point x="161.726" y="49"/>
      <point x="349.717" y="49" type="curve"/>
    </contour>
    <contour>
      <point x="330" y="0" type="line"/>
      <point x="464" y="0" type="line"/>
      <point x="464" y="707" type="line"/>
      <point x="330" y="707" type="line"/>
    </contour>
    <contour>
      <point x="444.198" y="49" type="line"/>
      <point x="633.561" y="49"/>
      <point x="738.198" y="140.68"/>
      <point x="738.198" y="339" type="curve" smooth="yes"/>
      <point x="738.198" y="370" type="line" smooth="yes"/>
      <point x="738.198" y="568.922"/>
      <point x="631.57" y="660"/>
      <point x="444.198" y="660" type="curve"/>
      <point x="444.198" y="542" type="line"/>
      <point x="549.531" y="542"/>
      <point x="604.198" y="495.333"/>
      <point x="604.198" y="362" type="curve" smooth="yes"/>
      <point x="604.198" y="341" type="line" smooth="yes"/>
      <point x="604.198" y="213.667"/>
      <point x="549.531" y="170"/>
      <point x="444.198" y="170" type="curve"/>
    </contour>
  </outline>
  <guideline angle="90" name="h1" x="607.5" y="0"/>
</glyph>
<glyph name="Checyr" format="2">
  <advance width="692"/>
  <unicode hex="0427"/>
  <outline>
    <contour>
      <point x="498" y="354.017" type="line"/>
      <point x="452.292" y="326.335"/>
      <point x="405.466" y="321"/>
      <point x="345" y="321" type="curve" smooth="yes"/>
      <point x="247.354" y="321"/>
      <point x="195" y="372.307"/>
      <point x="195" y="468" type="curve" smooth="yes"/>
      <point x="195" y="707" type="line"/>
      <point x="60" y="707" type="line"/>
      <point x="60" y="464" type="line" smooth="yes"/>
      <point x="60" y="306.549"/>
      <point x="172.41" y="204"/>
      <point x="345" y="204" type="curve" smooth="yes"/>
      <point x="419.132" y="204"/>
      <point x="513.094" y="220.388"/>
      <point x="572" y="264.488" type="curve"/>
      <point x="572" y="354.017" type="line"/>
    </contour>
    <contour>
      <point x="498" y="0" type="line"/>
      <point x="632" y="0" type="line"/>
      <point x="632" y="707" type="line"/>
      <point x="498" y="707" type="line"/>
    </contour>
  </outline>
</glyph>
<glyph name="Hardcyr" format="2">
  <advance width="783"/>
  <unicode hex="042A"/>
  <outline>
    <contour>
      <point x="294.82" y="0" type="line"/>
      <point x="486" y="0" type="line" smooth="yes"/>
      <point x="646.091" y="0"/>
      <point x="738" y="80.9675"/>
      <point x="738" y="222" type="curve" smooth="yes"/>
      <point x="738" y="359.53"/>
      <point x="643.515" y="439"/>
      <point x="480" y="439" type="curve" smooth="yes"/>
      <point x="294.82" y="439" type="line"/>
      <point x="294.82" y="321" type="line"/>
      <point x="491" y="321" type="line" smooth="yes"/>
      <point x="566.333" y="321"/>
      <point x="604" y="287.667"/>
      <point x="604" y="221" type="curve" smooth="yes"/>
      <point x="604" y="153.134"/>
      <point x="564.594" y="116.867"/>
      <point x="491" y="117" type="curve" smooth="yes"/>
      <point x="294.82" y="117.356" type="line"/>
    </contour>
    <contour>
      <point x="180" y="0" type="line"/>
      <point x="315" y="-0.0399" type="line"/>
      <point x="315" y="707" type="line"/>
      <point x="180" y="707" type="line"/>
    </contour>
    <contour>
      <point x="0.4775" y="590" type="line"/>
      <point x="246.865" y="590" type="line"/>
      <point x="246.865" y="707" type="line"/>
      <point x="0.477515" y="707" type="line"/>
    </contour>
  </outline>
</glyph>
<glyph name="Yucyr" format="2">
  <advance width="919"/>
  <unicode hex="042E"/>
  <anchor x="530" y="776" name="top"/>
  <outline>
    <component base="O" xOffset="230"/>
    <contour>
      <point x="174.64" y="299" type="line"/>
      <point x="351.017" y="299" type="line"/>
      <point x="351.017" y="416" type="line"/>
      <point x="174.64" y="416" type="line"/>
    </contour>
    <contour>
      <point x="60" y="0" type="line"/>
      <point x="195" y="0" type="line"/>
      <point x="195" y="707" type="line"/>
      <point x="60" y="707" type="line"/>
    </contour>
  </outline>
  <guideline angle="90" name="h1" x="530" y="0"/>
</glyph>
<glyph name="ereversedcyr" format="2">
  <advance width="571"/>
  <unicode hex="044D"/>
  <anchor x="289" y="602" name="top"/>
  <outline>
    <component base="c" xScale="-1" xOffset="572"/>
    <contour>
      <point x="251.986" y="227" type="line"/>
      <point x="422" y="227" type="line"/>
      <point x="422" y="339" type="line"/>
      <point x="251.986" y="339" type="line"/>
    </contour>
  </outline>
  <guideline angle="90" name="h1" x="289" y="0"/>
</glyph>
<glyph name="eukrcyr" format="2">
  <advance width="572"/>
  <unicode hex="0454"/>
  <outline>
    <contour>
      <point x="401" y="190" type="line"/>
      <point x="401" y="186" type="line" smooth="yes"/>
      <point x="401" y="135.156"/>
      <point x="361.106" y="104"/>
      <point x="296" y="104" type="curve" smooth="yes"/>
      <point x="211.509" y="104"/>
      <point x="173" y="145.64"/>
      <point x="173" y="237" type="curve" smooth="yes"/>
      <point x="173" y="297" type="line" smooth="yes"/>
      <point x="173" y="386.267"/>
      <point x="211.848" y="429"/>
      <point x="293" y="429" type="curve" smooth="yes"/>
      <point x="360.798" y="429"/>
      <point x="402" y="396.492"/>
      <point x="402" y="343" type="curve" smooth="yes"/>
      <point x="402" y="339" type="line"/>
      <point x="526" y="339" type="line"/>
      <point x="526" y="345" type="line" smooth="yes"/>
      <point x="526" y="468.661"/>
      <point x="438.142" y="542"/>
      <point x="290" y="542" type="curve" smooth="yes"/>
      <point x="134.667" y="542"/>
      <point x="47" y="454.333"/>
      <point x="47" y="299" type="curve" smooth="yes"/>
      <point x="47" y="236" type="line" smooth="yes"/>
      <point x="47" y="80.0652"/>
      <point x="135.338" y="-9"/>
      <point x="290" y="-9" type="curve" smooth="yes"/>
      <point x="436.444" y="-9"/>
      <point x="525" y="64.4823"/>
      <point x="525" y="186" type="curve" smooth="yes"/>
      <point x="525" y="190" type="line"/>
    </contour>
    <contour>
      <point x="320.014" y="339" type="line"/>
      <point x="150" y="339" type="line"/>
      <point x="150" y="227" type="line"/>
      <point x="320.014" y="227" type="line"/>
    </contour>
  </outline>
</glyph>
<glyph name="Geupcyr" format="2">
  <advance width="595"/>
  <unicode hex="0490"/>
  <outline>
    <contour>
      <point x="174.557" y="590" type="line"/>
      <point x="565" y="590" type="line"/>
      <point x="565" y="707" type="line"/>
      <point x="174.557" y="707" type="line"/>
    </contour>
    <contour>
      <point x="60" y="0" type="line"/>
      <point x="195" y="0" type="line"/>
      <point x="195" y="707.01" type="line"/>
      <point x="60" y="707" type="line"/>
    </contour>
    <contour>
      <point x="439" y="707" type="line"/>
      <point x="565" y="707" type="line"/>
      <point x="565" y="849.896" type="line"/>
      <point x="439" y="849.896" type="line"/>
    </contour>
  </outline>
</glyph>
<glyph name="zdotbelow" format="2">
  <advance width="513"/>
  <unicode hex="1E93"/>
  <outline>
    <contour>
      <point x="47" y="0" type="line"/>
      <point x="467" y="0" type="line"/>
      <point x="467" y="106" type="line"/>
      <point x="193" y="106" type="line"/>
      <point x="467" y="426" type="line"/>
      <point x="467" y="532" type="line"/>
      <point x="47" y="532" type="line"/>
      <point x="47" y="426" type="line"/>
      <point x="321" y="426" type="line"/>
      <point x="47" y="106" type="line"/>
    </contour>
    <contour>
      <point x="194" y="-188" type="line"/>
      <point x="326" y="-188" type="line"/>
      <point x="326" y="-86" type="line"/>
      <point x="194" y="-86" type="line"/>
    </contour>
  </outline>
</glyph>
<glyph name="endash" format="2">
  <advance width="480"/>
  <unicode hex="2013"/>
  <outline>
    <contour>
      <point x="0" y="295" type="line"/>
      <point x="480" y="295" type="line"/>
      <point x="480" y="413" type="line"/>
      <point x="0" y="413" type="line"/>
    </contour>
  </outline>
</glyph>
<glyph name="quoteleft" format="2">
  <advance width="197"/>
  <unicode hex="2018"/>
  <outline>
    <contour>
      <point x="39" y="443" type="line"/>
      <point x="159" y="443" type="line"/>
      <point x="159" y="750" type="line"/>
      <point x="39" y="648" type="line"/>
    </contour>
  </outline>
</glyph>
<glyph name="ellipsis" format="2">
  <advance width="812"/>
  <unicode hex="2026"/>
  <outline>
    <contour>
      <point x="39" y="0" type="line"/>
      <point x="181" y="0" type="line"/>
      <point x="181" y="145" type="line"/>
      <point x="39" y="145" type="line"/>
    </contour>
    <contour>
      <point x="631" y="0" type="line"/>
      <point x="773" y="0" type="line"/>
      <point x="773" y="145" type="line"/>
      <point x="631" y="145" type="line"/>
    </contour>
    <contour>
      <point x="335" y="0" type="line"/>
      <point x="477" y="0" type="line"/>
      <point x="477" y="145" type="line"/>
      <point x="335" y="145" type="line"/>
    </contour>
  </outline>
</glyph>
<glyph name="divisionslash" format="2">
  <advance width="180"/>
  <unicode hex="2215"/>
  <outline>
    <contour>
      <point x="47" y="-10" type="line"/>
      <point x="154" y="-10" type="line"/>
      <point x="560" y="712" type="line"/>
      <point x="452" y="712" type="line"/>
    </contour>
  </outline>
</glyph>
<glyph name="fi" format="2">
  <advance width="588"/>
  <unicode hex="FB01"/>
  <outline>
    <contour>
      <point x="109" y="0" type="line"/>
      <point x="234" y="0" type="line"/>
      <point x="234" y="443" type="line"/>
      <point x="349" y="443" type="line"/>
      <point x="349" y="532" type="line"/>
      <point x="234" y="532" type="line"/>
      <point x="234" y="559" type="line" smooth="yes"/>
      <point x="234" y="603.301"/>
      <point x="253.412" y="621"/>
      <point x="302" y="621" type="curve" smooth="yes"/>
      <point x="349" y="621" type="line"/>
      <point x="349" y="707" type="line"/>
      <point x="266" y="707" type="line" smooth="yes"/>
      <point x="162.009" y="707"/>
      <point x="109" y="655.342"/>
      <point x="109" y="554" type="curve" smooth="yes"/>
      <point x="109" y="532" type="line"/>
      <point x="37" y="532" type="line"/>
      <point x="37" y="443" type="line"/>
      <point x="109" y="443" type="line"/>
    </contour>
    <contour>
      <point x="402" y="0" type="line"/>
      <point x="528" y="0" type="line"/>
      <point x="528" y="532" type="line"/>
      <point x="402" y="532" type="line"/>
    </contour>
    <contour>
      <point x="402" y="608" type="line"/>
      <point x="528" y="608" type="line"/>
      <point x="528" y="710" type="line"/>
      <point x="402" y="710" type="line"/>
    </contour>
  </outline>
</glyph>
<glyph name="fl" format="2">
  <advance width="663"/>
  <unicode hex="FB02"/>
  <outline>
    <component base="f"/>
    <contour>
      <point x="645" y="0" type="line"/>
      <point x="645" y="110" type="line"/>
      <point x="597" y="110" type="line" smooth="yes"/>
      <point x="542.552" y="110"/>
      <point x="524" y="127.79"/>
      <point x="524" y="180" type="curve" smooth="yes"/>
      <point x="524" y="707" type="line"/>
      <point x="397" y="707" type="line"/>
      <point x="397" y="172" type="line" smooth="yes"/>
      <point x="397" y="56.827"/>
      <point x="455.479" y="0"/>
      <point x="574" y="0" type="curve" smooth="yes"/>
    </contour>
  </outline>
</glyph>
<glyph name="oacute.loclPLK" format="2">
  <advance width="576"/>
  <outline>
    <contour>
      <point x="290" y="-9" type="curve" smooth="yes"/>
      <point x="443.034" y="-9"/>
      <point x="530" y="79.7778"/>
      <point x="530" y="236" type="curve" smooth="yes"/>
      <point x="530" y="299" type="line" smooth="yes"/>
      <point x="530" y="453.942"/>
      <point x="443.029" y="542"/>
      <point x="290" y="542" type="curve" smooth="yes"/>
      <point x="134.667" y="542"/>
      <point x="47" y="454.333"/>
      <point x="47" y="299" type="curve" smooth="yes"/>
      <point x="47" y="236" type="line" smooth="yes"/>
      <point x="47" y="80.0652"/>
      <point x="135.338" y="-9"/>
    </contour>
    <contour>
      <point x="290" y="104" type="curve" smooth="yes"/>
      <point x="212" y="104.667"/>
      <point x="173" y="149"/>
      <point x="173" y="237" type="curve" smooth="yes"/>
      <point x="173" y="297" type="line" smooth="yes"/>
      <point x="173" y="385"/>
      <point x="212" y="429"/>
      <point x="290" y="429" type="curve" smooth="yes"/>
      <point x="365.818" y="429"/>
      <point x="404" y="384.789"/>
      <point x="404" y="297" type="curve" smooth="yes"/>
      <point x="404" y="237" type="line" smooth="yes"/>
      <point x="404" y="149"/>
      <point x="366" y="104.667"/>
    </contour>
    <contour>
      <point x="214" y="602" type="line"/>
      <point x="329" y="602" type="line"/>
      <point x="411" y="738" type="line"/>
      <point x="259" y="738" type="line"/>
    </contour>
  </outline>
</glyph>
<glyph name="shacyr.loclBGR" format="2">
  <advance width="917"/>
  <outline>
    <contour>
      <point x="862" y="532" type="line"/>
      <point x="735" y="532" type="line"/>
      <point x="735" y="231" type="line" smooth="yes"/>
      <point x="735" y="151.565"/>
      <point x="694.173" y="106"/>
      <point x="623" y="106" type="curve" smooth="yes"/>
      <point x="556.959" y="106"/>
      <point x="522" y="145.805"/>
      <point x="522" y="221" type="curve" smooth="yes"/>
      <point x="522" y="532" type="line"/>
      <point x="395" y="532" type="line"/>
      <point x="395" y="229" type="line" smooth="yes"/>
      <point x="395" y="151.919"/>
      <point x="353.561" y="106"/>
      <point x="284" y="106" type="curve" smooth="yes"/>
      <point x="217.233" y="106"/>
      <point x="182" y="147.451"/>
      <point x="182" y="226" type="curve" smooth="yes"/>
      <point x="182" y="532" type="line"/>
      <point x="55" y="532" type="line"/>
      <point x="55" y="200" type="line" smooth="yes"/>
      <point x="55" y="70"/>
      <point x="132" y="-7"/>
      <point x="262" y="-7" type="curve" smooth="yes"/>
      <point x="330.667" y="-7"/>
      <point x="387.667" y="17"/>
      <point x="433" y="65" type="curve"/>
      <point x="466.647" y="18.4118"/>
      <point x="521" y="-7"/>
      <point x="587" y="-7" type="curve" smooth="yes"/>
      <point x="645.76" y="-7"/>
      <point x="701.552" y="16.6467"/>
      <point x="738" y="57" type="curve"/>
      <point x="738" y="0" type="line"/>
      <point x="862" y="0" type="line"/>
    </contour>
  </outline>
</glyph>
<glyph name="softcyr.loclBGR" format="2">
  <advance width="583"/>
  <outline>
    <contour>
      <point x="55" y="196.6" type="line"/>
      <point x="181" y="196.6" type="line"/>
      <point x="181" y="532" type="line"/>
      <point x="55" y="532" type="line"/>
    </contour>
    <contour>
      <point x="55" y="196.6" type="line"/>
      <point x="55" y="74.0241"/>
      <point x="158.883" y="-9"/>
      <point x="293.883" y="-9" type="curve" smooth="yes"/>
      <point x="435.792" y="-9"/>
      <point x="528" y="76.0625"/>
      <point x="528" y="206.975" type="curve" smooth="yes"/>
      <point x="528" y="332.361"/>
      <point x="442.533" y="418"/>
      <point x="317.4" y="418" type="curve" smooth="yes"/>
      <point x="257.34" y="418"/>
      <point x="221.06" y="408.333"/>
      <point x="161" y="389" type="curve"/>
      <point x="161" y="277" type="line"/>
      <point x="221.06" y="298"/>
      <point x="257.34" y="305"/>
      <point x="301.397" y="305" type="curve" smooth="yes"/>
      <point x="363.609" y="305"/>
      <point x="402" y="267.799"/>
      <point x="402" y="207.513" type="curve" smooth="yes"/>
      <point x="402" y="146.908"/>
      <point x="359.732" y="104"/>
      <point x="300.03" y="104" type="curve" smooth="yes"/>
      <point x="225.997" y="104"/>
      <point x="181" y="137.972"/>
      <point x="181" y="196.6" type="curve"/>
    </contour>
  </outline>
</glyph>
<glyph name="t_t" format="2">
  <advance width="734"/>
  <outline>
    <component base="t"/>
    <component base="t" xOffset="329.385"/>
    <contour>
      <point x="525.842" y="443" type="line"/>
      <point x="525.842" y="532" type="line"/>
      <point x="173.657" y="532" type="line"/>
      <point x="173.657" y="443" type="line"/>
    </contour>
  </outline>
</glyph>
<glyph name="uni0301.loclPLK" format="2">
  <outline>
    <contour>
      <point x="-48" y="602" type="line"/>
      <point x="67" y="602" type="line"/>
      <point x="149" y="738" type="line"/>
      <point x="-3" y="738" type="line"/>
    </contour>
  </outline>
</glyph>
<glyph name="yucyr.loclBGR" format="2">
  <advance width="786"/>
  <anchor x="480" y="602" name="top"/>
  <outline>
    <component base="o" xOffset="210"/>
    <contour>
      <point x="55" y="0" type="line"/>
      <point x="181" y="0" type="line"/>
      <point x="181" y="707" type="line"/>
      <point x="55" y="707" type="line"/>
    </contour>
    <contour>
      <point x="121" y="227" type="line"/>
      <point x="332" y="227" type="line"/>
      <point x="332" y="339" type="line"/>
      <point x="121" y="339" type="line"/>
    </contour>
  </outline>
  <guideline angle="90" name="h1" x="123" y="0"/>
  <guideline angle="90" name="h1" x="480" y="0"/>
</glyph>
<glyph name="zero.sups" format="2">
  <advance width="415"/>
  <outline>
    <contour>
      <point x="40" y="582.899" type="line" smooth="yes"/>
      <point x="40" y="482.978"/>
      <point x="93.7604" y="426"/>
      <point x="208.109" y="426" type="curve" smooth="yes"/>
      <point x="321.196" y="426"/>
      <point x="375" y="483.359"/>
      <point x="375" y="582.899" type="curve" smooth="yes"/>
      <point x="375" y="719.219" type="line" smooth="yes"/>
      <point x="375" y="813.418"/>
      <point x="321.112" y="868"/>
      <point x="208.109" y="868" type="curve" smooth="yes"/>
      <point x="96.779" y="868"/>
      <point x="40" y="811.351"/>
      <point x="40" y="719.219" type="curve" smooth="yes"/>
    </contour>
    <contour>
      <point x="208.462" y="517" type="curve" smooth="yes"/>
      <point x="162.885" y="517"/>
      <point x="145" y="542.277"/>
      <point x="145" y="581.206" type="curve" smooth="yes"/>
      <point x="145" y="714.24" type="line" smooth="yes"/>
      <point x="145" y="752.692"/>
      <point x="163.475" y="778"/>
      <point x="208.462" y="778" type="curve" smooth="yes"/>
      <point x="253.05" y="778"/>
      <point x="270" y="753.542"/>
      <point x="270" y="714.24" type="curve" smooth="yes"/>
      <point x="270" y="581.206" type="line" smooth="yes"/>
      <point x="270" y="541.054"/>
      <point x="254.044" y="517"/>
    </contour>
  </outline>
</glyph>
